<?xml version="1.0" encoding="utf-8"?>
<!-- Generator: Adobe Illustrator 22.1.0, SVG Export Plug-In . SVG Version: 6.00 Build 0)  -->
<!DOCTYPE svg PUBLIC "-//W3C//DTD SVG 1.1//EN" "http://www.w3.org/Graphics/SVG/1.1/DTD/svg11.dtd" [
	<!ENTITY st0 "fill:#FF7D00;">
	<!ENTITY st1 "fill:#210B00;">
]>
<svg version="1.1" id="Layer_1" xmlns="http://www.w3.org/2000/svg" xmlns:xlink="http://www.w3.org/1999/xlink" x="0px" y="0px"
	 viewBox="0 0 66.4 66.4" style="enable-background:new 0 0 66.4 66.4;" xml:space="preserve">
<rect style="&st0;" width="66.4" height="66.4"/>
<rect x="3.8" y="3.4" style="&st1;" width="58.9" height="58.9"/>
<g>
	<path style="&st0;" d="M23.8,40.6L21,49.1h-3.6L26.6,22h4.2L40,49.1h-3.7l-2.9-8.5H23.8z M32.7,37.8L30,30c-0.6-1.8-1-3.4-1.4-5
		h-0.1c-0.4,1.6-0.8,3.3-1.4,4.9l-2.7,7.8H32.7z"/>
	<path style="&st0;" d="M47.7,24.1c0,1.2-0.8,2.2-2.3,2.2c-1.2,0-2.1-1-2.1-2.2c0-1.2,0.9-2.2,2.2-2.2
		C46.9,21.9,47.7,22.9,47.7,24.1z M43.8,49.1V29.6h3.5v19.5H43.8z"/>
</g>
<g>
</g>
<g>
</g>
<g>
</g>
<g>
</g>
<g>
</g>
<g>
</g>
<g>
</g>
<g>
</g>
<g>
</g>
<g>
</g>
<g>
</g>
<g>
</g>
<g>
</g>
<g>
</g>
<g>
</g>
</svg>
