<?xml version="1.0" encoding="utf-8"?>
<!-- Generator: Adobe Illustrator 22.1.0, SVG Export Plug-In . SVG Version: 6.00 Build 0)  -->
<!DOCTYPE svg PUBLIC "-//W3C//DTD SVG 1.1//EN" "http://www.w3.org/Graphics/SVG/1.1/DTD/svg11.dtd" [
	<!ENTITY st0 "fill:#9B4F96;">
	<!ENTITY st1 "fill:#68217A;">
	<!ENTITY st2 "fill:#FFFFFF;">
]>
<svg version="1.1" id="Layer_1" xmlns="http://www.w3.org/2000/svg" xmlns:xlink="http://www.w3.org/1999/xlink" x="0px" y="0px"
	 viewBox="0 0 80.4 94.2" style="enable-background:new 0 0 80.4 94.2;" xml:space="preserve">
<polygon style="&st0;" points="80.3,23.2 0.1,71 0,23.2 40.3,0 "/>
<path style="&st1;" d="M65.7,61.9C60.6,70.9,51,76.9,40,76.9c-10.8,0-20.3-5.8-25.5-14.4l9.8-5.8c3.2,5.4,9.2,9.1,16,9.1
	c6.9,0,13-3.8,16.2-9.4L65.7,61.9z"/>
<path style="&st2;" d="M56.4,56.3c-3.2,5.6-9.2,9.4-16.2,9.4c-6.8,0-12.7-3.6-16-9.1c-1.7-2.8-2.6-6-2.6-9.5
	c0-10.3,8.3-18.6,18.6-18.6c6.8,0,12.7,3.6,15.9,9l9.3-5.6C60.3,23.3,50.8,17.4,40,17.4c-16.4,0-29.7,13.3-29.7,29.7
	c0,5.6,1.5,10.8,4.3,15.3c5.2,8.6,14.7,14.4,25.5,14.4c11,0,20.6-6,25.8-14.9L56.4,56.3z"/>
<path style="&st1;" d="M80.4,71L40.1,94.2L0.1,71l14.4-8.6c5.2,8.6,14.7,14.4,25.5,14.4c11,0,20.6-6,25.8-14.9l-9.3-5.7
	c-3.2,5.6-9.2,9.4-16.2,9.4c-6.8,0-12.7-3.6-16-9.1l31.9-19l9.3-5.6l14.8-8.8L80.4,71z"/>
<g>
	<path style="&st2;" d="M77.2,47.9v3.7H61.3v-3.7H77.2z M62.3,45v-3.7h15.9V45H62.3z M66.4,36.6h2.9l-3,19.7h-2.9L66.4,36.6z
		 M73.4,36.6h2.9l-3,19.7h-3L73.4,36.6z"/>
</g>
<g>
</g>
<g>
</g>
<g>
</g>
<g>
</g>
<g>
</g>
<g>
</g>
<g>
</g>
<g>
</g>
<g>
</g>
<g>
</g>
<g>
</g>
<g>
</g>
<g>
</g>
<g>
</g>
<g>
</g>
</svg>
