<?xml version="1.0" encoding="utf-8"?>
<!-- Generator: Adobe Illustrator 22.1.0, SVG Export Plug-In . SVG Version: 6.00 Build 0)  -->
<!DOCTYPE svg PUBLIC "-//W3C//DTD SVG 1.1//EN" "http://www.w3.org/Graphics/SVG/1.1/DTD/svg11.dtd" [
	<!ENTITY st0 "fill:#2277FF;">
	<!ENTITY st1 "fill:#3399FF;">
	<!ENTITY st2 "fill:#FFFFFF;">
]>
<svg version="1.1" id="Layer_1" xmlns="http://www.w3.org/2000/svg" xmlns:xlink="http://www.w3.org/1999/xlink" x="0px" y="0px"
	 viewBox="0 0 72 83.3" style="enable-background:new 0 0 72 83.3;" xml:space="preserve">
<polygon style="&st0;" points="5.9,74.5 0,0 72,0 65.4,74.5 35.8,83.3 "/>
<polygon style="&st1;" points="36,7 65.8,7 60.6,68.8 35.7,76 "/>
<g>
	<path style="&st2;" d="M28.7,45.2c-1.2,0.6-2.8,0.9-4.7,0.9c-2.5,0-4.5-0.8-6-2.3c-1.5-1.5-2.2-3.6-2.2-6.1c0-2.7,0.8-4.9,2.5-6.6
		c1.6-1.7,3.8-2.5,6.4-2.5c1.6,0,3,0.2,4.1,0.6v3.7c-1.1-0.7-2.4-1-3.8-1c-1.6,0-2.8,0.5-3.8,1.5c-1,1-1.4,2.4-1.4,4.1
		c0,1.6,0.5,3,1.4,3.9c0.9,1,2.1,1.5,3.6,1.5c1.5,0,2.8-0.4,4-1.1V45.2z"/>
	<path style="&st2;" d="M30.8,45.2v-3.8c0.7,0.6,1.4,1,2.2,1.3c0.8,0.3,1.6,0.4,2.4,0.4c0.5,0,0.9,0,1.2-0.1
		c0.4-0.1,0.6-0.2,0.9-0.4c0.2-0.2,0.4-0.3,0.5-0.5c0.1-0.2,0.2-0.4,0.2-0.7c0-0.3-0.1-0.6-0.3-0.9c-0.2-0.3-0.4-0.5-0.8-0.7
		c-0.3-0.2-0.7-0.4-1.1-0.6c-0.4-0.2-0.9-0.4-1.4-0.6c-1.3-0.6-2.3-1.2-2.9-2c-0.6-0.8-1-1.8-1-2.9c0-0.9,0.2-1.6,0.5-2.3
		c0.3-0.6,0.8-1.2,1.4-1.6s1.3-0.7,2.1-0.9c0.8-0.2,1.6-0.3,2.5-0.3c0.9,0,1.6,0.1,2.3,0.2c0.7,0.1,1.3,0.3,1.8,0.5v3.5
		c-0.3-0.2-0.6-0.4-0.9-0.5c-0.3-0.2-0.7-0.3-1-0.4c-0.3-0.1-0.7-0.2-1-0.2c-0.3,0-0.7-0.1-1-0.1c-0.4,0-0.8,0-1.2,0.1
		c-0.3,0.1-0.6,0.2-0.9,0.4c-0.2,0.2-0.4,0.3-0.6,0.5c-0.1,0.2-0.2,0.4-0.2,0.7c0,0.3,0.1,0.5,0.2,0.8s0.4,0.4,0.6,0.6
		c0.3,0.2,0.6,0.4,1,0.6c0.4,0.2,0.8,0.4,1.3,0.6c0.7,0.3,1.3,0.6,1.8,0.9c0.5,0.3,1,0.7,1.4,1.1c0.4,0.4,0.7,0.9,0.9,1.4
		c0.2,0.5,0.3,1.1,0.3,1.8c0,0.9-0.2,1.7-0.5,2.4c-0.4,0.6-0.8,1.2-1.4,1.6s-1.3,0.7-2.1,0.9c-0.8,0.2-1.6,0.3-2.5,0.3
		c-0.9,0-1.8-0.1-2.6-0.2S31.4,45.5,30.8,45.2z"/>
	<path style="&st2;" d="M44.1,45.2v-3.8c0.7,0.6,1.4,1,2.2,1.3s1.6,0.4,2.4,0.4c0.5,0,0.9,0,1.2-0.1c0.4-0.1,0.6-0.2,0.9-0.4
		c0.2-0.2,0.4-0.3,0.5-0.5c0.1-0.2,0.2-0.4,0.2-0.7c0-0.3-0.1-0.6-0.3-0.9c-0.2-0.3-0.4-0.5-0.8-0.7c-0.3-0.2-0.7-0.4-1.1-0.6
		c-0.4-0.2-0.9-0.4-1.4-0.6c-1.3-0.6-2.3-1.2-2.9-2c-0.6-0.8-1-1.8-1-2.9c0-0.9,0.2-1.6,0.5-2.3c0.3-0.6,0.8-1.2,1.4-1.6
		s1.3-0.7,2.1-0.9s1.6-0.3,2.5-0.3c0.9,0,1.6,0.1,2.3,0.2c0.7,0.1,1.3,0.3,1.8,0.5v3.5c-0.3-0.2-0.6-0.4-0.9-0.5
		c-0.3-0.2-0.7-0.3-1-0.4c-0.3-0.1-0.7-0.2-1-0.2c-0.3,0-0.7-0.1-1-0.1c-0.4,0-0.8,0-1.2,0.1c-0.3,0.1-0.6,0.2-0.9,0.4
		c-0.2,0.2-0.4,0.3-0.6,0.5C48,32.8,48,33,48,33.3c0,0.3,0.1,0.5,0.2,0.8s0.4,0.4,0.6,0.6c0.3,0.2,0.6,0.4,1,0.6
		c0.4,0.2,0.8,0.4,1.3,0.6c0.7,0.3,1.3,0.6,1.8,0.9c0.5,0.3,1,0.7,1.4,1.1c0.4,0.4,0.7,0.9,0.9,1.4c0.2,0.5,0.3,1.1,0.3,1.8
		c0,0.9-0.2,1.7-0.5,2.4c-0.4,0.6-0.8,1.2-1.4,1.6s-1.3,0.7-2.1,0.9c-0.8,0.2-1.6,0.3-2.5,0.3c-0.9,0-1.8-0.1-2.6-0.2
		C45.4,45.7,44.7,45.5,44.1,45.2z"/>
</g>
<g>
</g>
<g>
</g>
<g>
</g>
<g>
</g>
<g>
</g>
<g>
</g>
<g>
</g>
<g>
</g>
<g>
</g>
<g>
</g>
<g>
</g>
<g>
</g>
<g>
</g>
<g>
</g>
<g>
</g>
</svg>
