<?xml version="1.0" encoding="utf-8"?>
<!-- Generator: Adobe Illustrator 22.1.0, SVG Export Plug-In . SVG Version: 6.00 Build 0)  -->
<!DOCTYPE svg PUBLIC "-//W3C//DTD SVG 1.1//EN" "http://www.w3.org/Graphics/SVG/1.1/DTD/svg11.dtd" [
	<!ENTITY st0 "fill:#E54D26;">
	<!ENTITY st1 "fill:#F06427;">
	<!ENTITY st2 "fill:none;">
	<!ENTITY st3 "fill:#FFFFFF;">
]>
<svg version="1.1" id="Layer_1" xmlns="http://www.w3.org/2000/svg" xmlns:xlink="http://www.w3.org/1999/xlink" x="0px" y="0px"
	 viewBox="0 0 72 83.3" style="enable-background:new 0 0 72 83.3;" xml:space="preserve">
<polygon style="&st0;" points="5.9,74.5 0,0 72,0 65.4,74.5 35.8,83.3 "/>
<polygon style="&st1;" points="36,7 65.8,7 60.6,68.8 35.7,76 "/>
<g>
	<rect x="7.4" y="28.3" style="&st2;" width="57.7" height="23"/>
	<path style="&st3;" d="M21.4,46.2h-3.2v-6h-5.9v6H9V31.5h3.2v5.9h5.9v-5.9h3.2V46.2z"/>
	<path style="&st3;" d="M34.8,34.2h-4.1v12h-3.2v-12h-4.1v-2.7h11.4V34.2z"/>
	<path style="&st3;" d="M53,46.2h-3.2v-8.8c0-1,0-2,0.1-3.1h-0.1c-0.2,0.9-0.3,1.6-0.4,1.9l-3.4,10h-2.6L40,36.3
		c-0.1-0.3-0.2-1-0.4-2.1h-0.1c0.1,1.4,0.1,2.7,0.1,3.8v8.1h-2.9V31.5h4.7l2.9,8.7c0.2,0.7,0.4,1.4,0.5,2.1h0.1
		c0.2-0.8,0.4-1.5,0.6-2.1l2.9-8.7H53V46.2z"/>
	<path style="&st3;" d="M64.8,46.2h-8.5V31.5h3.2v12h5.3V46.2z"/>
</g>
<g>
</g>
<g>
</g>
<g>
</g>
<g>
</g>
<g>
</g>
<g>
</g>
<g>
</g>
<g>
</g>
<g>
</g>
<g>
</g>
<g>
</g>
<g>
</g>
<g>
</g>
<g>
</g>
<g>
</g>
</svg>
