<?xml version="1.0" encoding="utf-8"?>
<!-- Generator: Adobe Illustrator 22.1.0, SVG Export Plug-In . SVG Version: 6.00 Build 0)  -->
<!DOCTYPE svg PUBLIC "-//W3C//DTD SVG 1.1//EN" "http://www.w3.org/Graphics/SVG/1.1/DTD/svg11.dtd" [
	<!ENTITY st0 "fill:#81CF08;">
]>
<svg version="1.1" id="Layer_1" xmlns="http://www.w3.org/2000/svg" xmlns:xlink="http://www.w3.org/1999/xlink" x="0px" y="0px"
	 viewBox="0 0 42.6 49.7" style="enable-background:new 0 0 42.6 49.7;" xml:space="preserve">
<path style="&st0;" d="M41.9,12.1C37.3,8.8,22.8,0.4,22.8,0.4c-0.9-0.5-2-0.5-2.9,0c0,0-14.3,8.8-18.8,11.5c-0.9,0.6-1.1,1-1.1,2.4
	c0,5.9,0.1,21.1,0.1,21.1c0,1.1,0.2,1.9,1.2,2.5C6,40.6,19.9,49.4,19.9,49.4c0.9,0.5,2,0.5,2.9,0c0,0,14.2-8.7,18.8-11.7
	c0.9-0.6,0.9-1.3,0.9-2.4c0-5.4,0-21.6,0-21.6C42.6,12.9,42.5,12.5,41.9,12.1z M39.4,35.1l-18,10.5l-8.1-4.7c1.6-0.5,2.7-2,2.7-3.7
	V15.9h-3.3v21.2c0,0-0.4,1.2-1.6,1.2c-1,0-1.9,0-2.1,0v0l-0.1,0l-5.6-3.3V14.5l18-10.4l18,10.4V35.1z"/>
<g>
	<g>
		<path style="&st0;" d="M35.7,29.6c0,1.7-0.8,3-2.4,4.2c-1.6,1.1-3.6,1.7-6.1,1.7c-3.2,0-5.7-0.6-7.3-1.8c-1.6-1.2-2.4-2.8-2.5-4.7
			h2.9c0.2,1.4,0.9,2.5,2.1,3.2c1.3,0.7,2.8,1,4.6,1c1.7,0,3.1-0.3,4.1-0.9s1.6-1.4,1.6-2.4c0-1.1-0.5-1.8-1.6-2.3
			c-1.1-0.5-2.9-1-5.5-1.4c-2.6-0.5-4.5-1.1-5.7-2c-1.1-0.8-1.7-2-1.7-3.3c0-1.6,0.8-2.9,2.2-3.9c1.5-1,3.5-1.5,5.9-1.5
			c2.6,0,4.7,0.5,6.3,1.5c1.6,1,2.4,2.5,2.5,4.3h-3c-0.3-2.3-2.2-3.5-5.7-3.5c-1.7,0-3,0.3-3.9,0.8s-1.4,1.3-1.4,2.2
			c0,0.8,0.4,1.4,1.1,1.8c0.7,0.4,2.1,0.8,4.2,1.2c2,0.4,3.7,0.8,4.9,1.1c1.2,0.4,2.2,1,3.1,1.7C35.3,27.3,35.7,28.3,35.7,29.6z"/>
	</g>
</g>
<g>
</g>
<g>
</g>
<g>
</g>
<g>
</g>
<g>
</g>
<g>
</g>
<g>
</g>
<g>
</g>
<g>
</g>
<g>
</g>
<g>
</g>
<g>
</g>
<g>
</g>
<g>
</g>
<g>
</g>
</svg>
