<?xml version="1.0" encoding="utf-8"?>
<!-- Generator: Adobe Illustrator 22.1.0, SVG Export Plug-In . SVG Version: 6.00 Build 0)  -->
<!DOCTYPE svg PUBLIC "-//W3C//DTD SVG 1.1//EN" "http://www.w3.org/Graphics/SVG/1.1/DTD/svg11.dtd" [
	<!ENTITY st0 "fill:#AD0303;">
	<!ENTITY st1 "fill:none;">
	<!ENTITY st2 "fill:#94FF7F;">
	<!ENTITY st3 "fill:#FFFFFF;">
]>
<svg version="1.1" id="Layer_1" xmlns="http://www.w3.org/2000/svg" xmlns:xlink="http://www.w3.org/1999/xlink" x="0px" y="0px"
	 viewBox="0 0 35.4 35.4" style="enable-background:new 0 0 35.4 35.4;" xml:space="preserve">
<rect x="4.5" y="26" width="4.9" height="4.9"/>
<rect x="11.7" y="11.7" width="4.9" height="4.9"/>
<rect x="11.7" y="18.8" width="4.9" height="4.9"/>
<rect x="18.8" y="11.7" width="4.9" height="4.9"/>
<rect x="18.8" y="26" width="4.9" height="4.9"/>
<rect x="26" y="18.8" width="4.9" height="4.9"/>
<rect x="18.8" y="11.7" style="&st0;" width="4.9" height="4.9"/>
<rect x="11.7" y="11.7" style="&st0;" width="4.9" height="4.9"/>
<rect x="11.7" y="18.8" style="&st0;" width="4.9" height="4.9"/>
<rect x="26" y="18.8" style="&st0;" width="4.9" height="4.9"/>
<rect x="4.5" y="26" style="&st0;" width="4.9" height="4.9"/>
<rect x="18.8" y="26" style="&st0;" width="4.9" height="4.9"/>
<path style="&st1;" d="M2.3,2.3v30.8h30.9V2.3H2.3z M23.7,11.7v4.9h-4.9v-4.9L23.7,11.7z M11.7,16.6v-4.9h4.9v4.9H11.7z M16.6,18.8
	v4.9h-4.9v-4.9H16.6z M9.4,30.9H4.5V26h4.9V30.9z M23.7,30.9h-4.9V26h4.9V30.9z M30.9,23.7H26v-4.9h4.9V23.7z M30.9,16.6h-3.1
	l-4.1,4.1v3.1h-3.1l-4.1,4.1V31h-4.9v-3.3l-3.9-3.9H4.5v-4.9h4.9v3.3l3.9,3.9h1.9l3.7-3.7v-3.5h3.5l3.7-3.7v-3.5H31v4.9H30.9z"/>
<path d="M29.7,9.4h-24C5,9.4,4.5,8.9,4.5,8.3V5.7C4.5,5,5,4.5,5.7,4.5h24.1c0.6,0,1.1,0.5,1.1,1.1v2.6C30.9,8.9,30.4,9.4,29.7,9.4z"
	/>
<path d="M34.1,0H1.3C0.6,0,0,0.6,0,1.3v32.8c0,0.7,0.6,1.3,1.3,1.3h32.8c0.7,0,1.3-0.6,1.3-1.3V1.3C35.4,0.6,34.8,0,34.1,0z
	 M33.1,31.9c0,0.7-0.5,1.2-1.2,1.3h-0.1H3.5H3.4c-0.7,0-1.2-0.6-1.2-1.3V3.6c0-0.7,0.6-1.3,1.3-1.3h28.3c0.7,0,1.3,0.6,1.3,1.3V31.9
	z"/>
<polygon style="&st2;" points="30.9,11.7 30.9,16.6 27.8,16.6 23.7,20.6 23.7,23.7 20.6,23.7 16.6,27.8 16.6,30.9 11.7,30.9 
	11.7,27.6 7.8,23.7 4.5,23.7 4.5,18.8 9.4,18.8 9.4,22.1 13.3,26 15.2,26 18.8,22.3 18.8,18.8 22.3,18.8 26,15.2 26,11.7 "/>
<path style="&st3;" d="M9.4,11.7H5.9c-0.8,0-1.4,0.6-1.4,1.4v3.5h4.9V11.7z"/>
<path style="&st3;" d="M30.9,26H26v4.9h3.5c0.7,0,1.3-0.6,1.3-1.3V26H30.9z"/>
<g>
	<path style="&st2;" d="M11.5,5H14v0.4h-2v1.2h1.8v0.4H12v1.4h2v0.4h-2.6V5z"/>
	<path style="&st2;" d="M14.4,8.9L15.9,5h0.4l1.5,3.9h-0.5l-0.5-1.1h-1.5l-0.5,1.1H14.4z M16.1,5.8l-0.6,1.5h1.1L16.1,5.8z"/>
	<path style="&st2;" d="M18.7,5.3c0.2-0.2,0.5-0.3,1-0.3c0.5,0,0.8,0.1,1,0.4C20.9,5.6,21,5.9,21,6.1h-0.5c0-0.2,0-0.3-0.2-0.4
		c-0.1-0.1-0.3-0.2-0.6-0.2c-0.3,0-0.5,0-0.7,0.2c-0.1,0.1-0.1,0.2-0.1,0.4s0,0.2,0.1,0.3c0.1,0.1,0.2,0.1,0.4,0.2
		c0.3,0.1,0.7,0.3,1.1,0.5c0.1,0,0.2,0.1,0.3,0.2c0.1,0.1,0.2,0.4,0.2,0.6c0,0.3-0.1,0.6-0.3,0.8C20.5,8.9,20.2,9,19.6,9
		c-0.5,0-0.9-0.1-1.1-0.4c-0.2-0.2-0.3-0.5-0.3-0.9h0.5c0,0.3,0,0.5,0.2,0.6c0.1,0.1,0.4,0.2,0.8,0.2c0.3,0,0.5-0.1,0.7-0.2
		c0.1-0.1,0.2-0.2,0.2-0.4c0-0.1,0-0.2-0.1-0.3c-0.1-0.1-0.2-0.1-0.4-0.2c-0.1-0.1-0.3-0.1-0.6-0.3C19.2,7,19,6.9,18.8,6.8
		c-0.1,0-0.2-0.1-0.3-0.2c-0.1-0.1-0.2-0.3-0.2-0.5C18.4,5.8,18.5,5.5,18.7,5.3z"/>
	<path style="&st2;" d="M21.5,5H22l1.1,1.8L24.2,5h0.5l-1.4,2.1v1.7h-0.5V7.2L21.5,5z"/>
</g>
<g>
</g>
<g>
</g>
<g>
</g>
<g>
</g>
<g>
</g>
<g>
</g>
<g>
</g>
<g>
</g>
<g>
</g>
<g>
</g>
<g>
</g>
<g>
</g>
<g>
</g>
<g>
</g>
<g>
</g>
</svg>
