<?xml version="1.0" encoding="utf-8"?>
<!-- Generator: Adobe Illustrator 22.1.0, SVG Export Plug-In . SVG Version: 6.00 Build 0)  -->
<!DOCTYPE svg PUBLIC "-//W3C//DTD SVG 1.1//EN" "http://www.w3.org/Graphics/SVG/1.1/DTD/svg11.dtd" [
	<!ENTITY st0 "fill:#FFFFFF;">
]>
<svg version="1.1" id="Layer_1" xmlns="http://www.w3.org/2000/svg" xmlns:xlink="http://www.w3.org/1999/xlink" x="0px" y="0px"
	 viewBox="0 0 71 23.3" style="enable-background:new 0 0 71 23.3;" xml:space="preserve">
<g>
	<path style="&st0;" d="M8.6,8.8h-1V3.1c0-0.4,0-1,0.1-1.6h0C7.6,1.9,7.5,2.2,7.4,2.3L4.5,8.8H4L1.2,2.4C1.1,2.2,1,1.9,0.9,1.5h0
		c0,0.3,0,0.9,0,1.6v5.6H0V0.4h1.3l2.6,5.9c0.2,0.4,0.3,0.8,0.4,1h0c0.2-0.5,0.3-0.8,0.4-1l2.6-5.8h1.2V8.8z"/>
	<path style="&st0;" d="M13.2,8.9c-0.9,0-1.6-0.3-2.1-0.8s-0.8-1.3-0.8-2.2c0-1,0.3-1.8,0.8-2.4s1.3-0.8,2.2-0.8
		c0.9,0,1.6,0.3,2.1,0.8s0.8,1.3,0.8,2.3c0,1-0.3,1.7-0.8,2.3S14.1,8.9,13.2,8.9z M13.2,3.4c-0.6,0-1.1,0.2-1.5,0.6s-0.5,1-0.5,1.7
		c0,0.7,0.2,1.3,0.5,1.7s0.8,0.6,1.5,0.6c0.6,0,1.1-0.2,1.4-0.6c0.3-0.4,0.5-1,0.5-1.7C15.2,5,15,4.5,14.7,4
		C14.3,3.6,13.8,3.4,13.2,3.4z"/>
	<path style="&st0;" d="M20.8,3.7c-0.2-0.1-0.4-0.2-0.7-0.2c-0.4,0-0.8,0.2-1,0.6S18.6,5,18.6,5.7v3.1h-1v-6h1V4h0
		c0.1-0.4,0.3-0.8,0.6-1s0.6-0.4,0.9-0.4c0.3,0,0.4,0,0.6,0.1V3.7z"/>
	<path style="&st0;" d="M26.7,6h-4.2c0,0.7,0.2,1.2,0.5,1.5s0.8,0.5,1.4,0.5c0.7,0,1.3-0.2,1.9-0.7v0.9c-0.5,0.4-1.2,0.6-2.1,0.6
		c-0.8,0-1.5-0.3-2-0.8s-0.7-1.3-0.7-2.3c0-0.9,0.3-1.7,0.8-2.3s1.2-0.9,2-0.9s1.4,0.3,1.8,0.8s0.6,1.2,0.6,2.1V6z M25.7,5.2
		c0-0.6-0.1-1-0.4-1.3s-0.6-0.5-1.1-0.5c-0.5,0-0.8,0.2-1.2,0.5s-0.5,0.7-0.6,1.3H25.7z"/>
	<path style="&st0;" d="M37.3,8.4c-0.6,0.3-1.4,0.5-2.3,0.5c-1.2,0-2.2-0.4-2.9-1.2S31,6,31,4.7c0-1.3,0.4-2.4,1.2-3.3
		s1.8-1.2,3.1-1.2c0.8,0,1.5,0.1,2,0.3v1c-0.6-0.3-1.3-0.5-2-0.5c-1,0-1.7,0.3-2.3,1S32,3.6,32,4.7c0,1,0.3,1.8,0.8,2.4
		S34.2,8,35.1,8c0.8,0,1.6-0.2,2.2-0.6V8.4z"/>
	<path style="&st0;" d="M41.3,8.9c-0.9,0-1.6-0.3-2.1-0.8s-0.8-1.3-0.8-2.2c0-1,0.3-1.8,0.8-2.4s1.3-0.8,2.2-0.8
		c0.9,0,1.6,0.3,2.1,0.8s0.8,1.3,0.8,2.3c0,1-0.3,1.7-0.8,2.3S42.3,8.9,41.3,8.9z M41.4,3.4c-0.6,0-1.1,0.2-1.5,0.6s-0.5,1-0.5,1.7
		c0,0.7,0.2,1.3,0.5,1.7s0.8,0.6,1.5,0.6c0.6,0,1.1-0.2,1.4-0.6s0.5-1,0.5-1.7c0-0.8-0.2-1.3-0.5-1.7S42,3.4,41.4,3.4z"/>
	<path style="&st0;" d="M54.4,8.8h-1V5.3c0-0.7-0.1-1.1-0.3-1.4s-0.6-0.4-1-0.4c-0.4,0-0.8,0.2-1,0.6s-0.4,0.8-0.4,1.3v3.4h-1V5.2
		c0-1.2-0.5-1.8-1.4-1.8c-0.4,0-0.8,0.2-1,0.5s-0.4,0.8-0.4,1.4v3.4h-1v-6h1v0.9h0c0.4-0.7,1-1.1,1.9-1.1c0.4,0,0.8,0.1,1.1,0.3
		s0.5,0.5,0.6,0.9c0.4-0.8,1.1-1.2,2-1.2c1.3,0,2,0.8,2,2.4V8.8z"/>
	<path style="&st0;" d="M56.7,1.2c-0.2,0-0.3-0.1-0.4-0.2s-0.2-0.3-0.2-0.4s0.1-0.3,0.2-0.4S56.5,0,56.7,0c0.2,0,0.3,0.1,0.4,0.2
		s0.2,0.3,0.2,0.4c0,0.2-0.1,0.3-0.2,0.4S56.9,1.2,56.7,1.2z M57.2,8.8h-1v-6h1V8.8z"/>
	<path style="&st0;" d="M64.1,8.8h-1V5.3c0-1.3-0.5-1.9-1.4-1.9c-0.5,0-0.9,0.2-1.2,0.5s-0.5,0.8-0.5,1.4v3.4h-1v-6h1v1h0
		c0.5-0.8,1.1-1.1,2-1.1c0.7,0,1.2,0.2,1.5,0.6s0.5,1,0.5,1.8V8.8z"/>
	<path style="&st0;" d="M71,8.3c0,2.2-1.1,3.3-3.2,3.3c-0.7,0-1.4-0.1-1.9-0.4v-1c0.7,0.4,1.3,0.6,1.9,0.6c1.5,0,2.2-0.8,2.2-2.4
		V7.8h0c-0.5,0.8-1.1,1.1-2.1,1.1c-0.7,0-1.3-0.3-1.8-0.8S65.5,6.9,65.5,6c0-1,0.2-1.8,0.7-2.4c0.5-0.6,1.2-0.9,2-0.9
		c0.8,0,1.4,0.3,1.8,1h0V2.8h1V8.3z M70.1,6.1V5.2c0-0.5-0.2-0.9-0.5-1.2s-0.7-0.5-1.2-0.5c-0.6,0-1.1,0.2-1.4,0.6s-0.5,1-0.5,1.8
		c0,0.7,0.2,1.2,0.5,1.6s0.7,0.6,1.3,0.6c0.5,0,1-0.2,1.3-0.6S70.1,6.7,70.1,6.1z"/>
	<path style="&st0;" d="M22.5,22.8v-1.2c0.1,0.1,0.3,0.2,0.5,0.3s0.4,0.2,0.6,0.2s0.4,0.1,0.6,0.1s0.4,0.1,0.6,0.1
		c0.6,0,1.1-0.1,1.4-0.3s0.4-0.5,0.4-1c0-0.2,0-0.4-0.1-0.6s-0.2-0.3-0.4-0.5c-0.2-0.1-0.4-0.3-0.6-0.4s-0.5-0.3-0.8-0.4
		c-0.3-0.1-0.6-0.3-0.8-0.5s-0.5-0.3-0.7-0.5s-0.3-0.4-0.4-0.6s-0.2-0.5-0.2-0.8c0-0.4,0.1-0.7,0.3-1s0.4-0.5,0.7-0.7
		s0.6-0.3,0.9-0.4s0.7-0.1,1.1-0.1c0.8,0,1.4,0.1,1.8,0.3V16c-0.5-0.3-1.1-0.5-1.9-0.5c-0.2,0-0.4,0-0.6,0.1s-0.4,0.1-0.6,0.2
		s-0.3,0.2-0.4,0.4s-0.2,0.4-0.2,0.6c0,0.2,0,0.4,0.1,0.6s0.2,0.3,0.4,0.4s0.3,0.3,0.6,0.4s0.5,0.3,0.8,0.4c0.3,0.1,0.6,0.3,0.9,0.5
		s0.5,0.3,0.7,0.5s0.4,0.4,0.5,0.7s0.2,0.5,0.2,0.8c0,0.4-0.1,0.8-0.2,1.1s-0.4,0.5-0.7,0.7s-0.6,0.3-1,0.4s-0.7,0.1-1.1,0.1
		c-0.1,0-0.3,0-0.5,0s-0.4-0.1-0.6-0.1S23.2,23.1,23,23S22.7,22.9,22.5,22.8z"/>
	<path style="&st0;" d="M31.7,23.3c-0.9,0-1.6-0.3-2.1-0.8s-0.8-1.3-0.8-2.2c0-1,0.3-1.8,0.8-2.4s1.3-0.8,2.2-0.8
		c0.9,0,1.6,0.3,2.1,0.8s0.8,1.3,0.8,2.3c0,1-0.3,1.7-0.8,2.3S32.6,23.3,31.7,23.3z M31.8,17.8c-0.6,0-1.1,0.2-1.5,0.6
		s-0.5,1-0.5,1.7c0,0.7,0.2,1.3,0.5,1.7s0.8,0.6,1.5,0.6c0.6,0,1.1-0.2,1.4-0.6s0.5-1,0.5-1.7c0-0.8-0.2-1.3-0.5-1.7
		S32.4,17.8,31.8,17.8z"/>
	<path style="&st0;" d="M38.7,23.3c-0.9,0-1.6-0.3-2.1-0.8s-0.8-1.3-0.8-2.2c0-1,0.3-1.8,0.8-2.4s1.3-0.8,2.2-0.8
		c0.9,0,1.6,0.3,2.1,0.8s0.8,1.3,0.8,2.3c0,1-0.3,1.7-0.8,2.3S39.6,23.3,38.7,23.3z M38.8,17.8c-0.6,0-1.1,0.2-1.5,0.6
		s-0.5,1-0.5,1.7c0,0.7,0.2,1.3,0.5,1.7s0.8,0.6,1.5,0.6c0.6,0,1.1-0.2,1.4-0.6s0.5-1,0.5-1.7c0-0.8-0.2-1.3-0.5-1.7
		S39.4,17.8,38.8,17.8z"/>
	<path style="&st0;" d="M48.2,23.2h-1v-3.4c0-1.3-0.5-1.9-1.4-1.9c-0.5,0-0.9,0.2-1.2,0.5s-0.5,0.8-0.5,1.4v3.4h-1v-6h1v1h0
		c0.5-0.8,1.1-1.1,2-1.1c0.7,0,1.2,0.2,1.5,0.6s0.5,1,0.5,1.8V23.2z"/>
</g>
<g>
</g>
<g>
</g>
<g>
</g>
<g>
</g>
<g>
</g>
<g>
</g>
<g>
</g>
<g>
</g>
<g>
</g>
<g>
</g>
<g>
</g>
<g>
</g>
<g>
</g>
<g>
</g>
<g>
</g>
</svg>
