<?xml version="1.0" encoding="utf-8"?>
<!-- Generator: Adobe Illustrator 22.1.0, SVG Export Plug-In . SVG Version: 6.00 Build 0)  -->
<!DOCTYPE svg PUBLIC "-//W3C//DTD SVG 1.1//EN" "http://www.w3.org/Graphics/SVG/1.1/DTD/svg11.dtd" [
	<!ENTITY st0 "fill:#FFFFFF;">
	<!ENTITY st1 "fill:none;">
	<!ENTITY st2 "fill:#2677C7;">
	<!ENTITY st3 "fill:#0072C6;">
	<!ENTITY st4 "fill:#B8D432;">
	<!ENTITY st5 "fill:#7FBA00;">
]>
<svg version="1.1" id="Layer_1" xmlns="http://www.w3.org/2000/svg" xmlns:xlink="http://www.w3.org/1999/xlink" x="0px" y="0px"
	 viewBox="0 0 56.7 75.7" style="enable-background:new 0 0 56.7 75.7;" xml:space="preserve">
<path style="&st0;" d="M28.3,0C12.7,0,0,4.5,0,10.2c0,0.2,0,0.3,0,0.5c0,0.2,0.1,0.3,0.1,0.5c0,0,0,0,0,0c0,0.1,0.1,0.3,0.1,0.4
	c0.1,0.2,0.2,0.4,0.3,0.6c0.1,0.2,0.2,0.3,0.3,0.5c0.1,0.1,0.2,0.2,0.3,0.4c0.1,0.1,0.1,0.2,0.2,0.3C2,14,2.8,14.7,3.8,15.3
	c0.1,0.1,0.3,0.2,0.4,0.3c0.7,0.4,1.4,0.8,2.3,1.1c0.6,0.3,1.2,0.5,1.8,0.7c0.2,0.1,0.4,0.1,0.6,0.2c0.3,0.1,0.6,0.2,1,0.3
	c0.4,0.1,0.8,0.3,1.3,0.4c0.4,0.1,0.7,0.2,1.1,0.3c0.8,0.2,1.7,0.4,2.6,0.6c0.3,0.1,0.6,0.1,0.9,0.2c0.2,0,0.4,0.1,0.5,0.1
	c0.3,0.1,0.7,0.1,1,0.2c0.4,0.1,0.9,0.1,1.3,0.2c2,0.3,4.1,0.5,6.3,0.5c0.6,0,1.1,0,1.7,0.1s1.2,0,1.8,0c0.6,0,1.1,0,1.7,0
	c0.5,0,1,0,1.5,0c0.4,0,0.8,0,1.2-0.1c0.4,0,0.9,0,1.3-0.1h0.1c0.4,0,0.8-0.1,1.1-0.1c1.5-0.1,3-0.3,4.4-0.5
	c0.4-0.1,0.8-0.1,1.3-0.2c0.5-0.1,1.1-0.2,1.6-0.3c0.5-0.1,0.9-0.2,1.3-0.3c0.5-0.1,0.9-0.2,1.3-0.3c1.1-0.3,2.2-0.6,3.2-1
	c0.2-0.1,0.3-0.1,0.5-0.2c0.3-0.1,0.6-0.2,0.9-0.4c0.3-0.1,0.6-0.3,0.9-0.4c0.4-0.2,0.8-0.4,1.1-0.6c0.2-0.1,0.4-0.2,0.6-0.3
	c0.1-0.1,0.2-0.1,0.2-0.1c0.4-0.2,0.8-0.5,1.1-0.7c0,0,0.1-0.1,0.1-0.1c0.2-0.1,0.3-0.3,0.5-0.4c0.2-0.1,0.3-0.3,0.5-0.4
	c0.1-0.1,0.2-0.2,0.3-0.3c0.1-0.1,0.2-0.2,0.2-0.3c0.2-0.2,0.3-0.4,0.4-0.6c0.1-0.1,0.2-0.2,0.2-0.3c0.1-0.1,0.2-0.3,0.2-0.4
	c0,0,0.1-0.1,0.1-0.2c0.1-0.1,0.1-0.2,0.1-0.3c0,0,0-0.1,0-0.1c0-0.1,0.1-0.2,0.1-0.4c0-0.2,0.1-0.4,0.1-0.6C56.7,4.5,44,0,28.3,0z
	 M46.6,13c-4.2,1.7-10.8,2.7-18.3,2.7c-7.6,0-14.4-1.1-18.5-2.8c-2.7-1.1-4.3-2.5-4.3-4c0-3.8,10.2-6.8,22.8-6.8s22.8,3.1,22.8,6.8
	C51.2,10.5,49.5,11.9,46.6,13z"/>
<path style="&st1;" d="M51.2,8.9c0,1.5-1.7,2.9-4.5,4.1c-4.1-1.7-10.9-2.8-18.6-2.8c-7.5,0-14.1,1.1-18.3,2.7
	c-2.7-1.1-4.3-2.5-4.3-4c0-3.8,10.2-6.8,22.8-6.8S51.2,5.2,51.2,8.9z"/>
<path style="&st2;" d="M56.7,10.2v55.3c0,5.6-12.7,10.2-28.3,10.2V20.3c0.6,0,1.1,0,1.7,0c0.5,0,1,0,1.5,0c0.4,0,0.8,0,1.2-0.1
	c0.4,0,0.9,0,1.3-0.1h0.1c0.4,0,0.8-0.1,1.1-0.1c1.5-0.1,3-0.3,4.4-0.5c0.4-0.1,0.8-0.1,1.3-0.2c0.5-0.1,1.1-0.2,1.6-0.3
	c0.5-0.1,0.9-0.2,1.3-0.3c0.5-0.1,0.9-0.2,1.3-0.3c1.1-0.3,2.2-0.6,3.2-1c0.2-0.1,0.3-0.1,0.5-0.2c0.3-0.1,0.6-0.2,0.9-0.4
	c0.3-0.1,0.6-0.3,0.9-0.4c0.4-0.2,0.8-0.4,1.1-0.6c0.2-0.1,0.4-0.2,0.6-0.3c0.1-0.1,0.2-0.1,0.2-0.1c0.4-0.2,0.8-0.5,1.1-0.7
	c0,0,0.1-0.1,0.1-0.1c0.2-0.1,0.3-0.3,0.5-0.4c0.2-0.1,0.3-0.3,0.5-0.4c0.1-0.1,0.2-0.2,0.3-0.3c0.1-0.1,0.2-0.2,0.2-0.3
	c0.2-0.2,0.3-0.4,0.4-0.6c0.1-0.1,0.2-0.2,0.2-0.3c0.1-0.2,0.2-0.3,0.2-0.4c0,0,0.1-0.1,0.1-0.2c0-0.1,0.1-0.2,0.1-0.3
	c0,0,0-0.1,0-0.1c0-0.1,0.1-0.2,0.1-0.4C56.6,10.6,56.7,10.4,56.7,10.2z"/>
<path style="&st3;" d="M26.6,20.3c0.6,0,1.2,0,1.8,0v55.3C12.7,75.7,0,71.1,0,65.5V10.2c0,0.2,0,0.3,0,0.5c0,0.2,0.1,0.3,0.1,0.5
	c0,0,0,0,0,0c0,0.1,0.1,0.3,0.1,0.4c0.1,0.2,0.2,0.4,0.3,0.6c0.1,0.2,0.2,0.3,0.3,0.5c0.1,0.1,0.2,0.2,0.3,0.4
	c0.1,0.1,0.1,0.2,0.2,0.3C2,14,2.8,14.7,3.8,15.3c0.1,0.1,0.3,0.2,0.4,0.3c0.7,0.4,1.4,0.8,2.3,1.1c0.6,0.3,1.2,0.5,1.8,0.7
	c0.2,0.1,0.4,0.1,0.6,0.2c0.3,0.1,0.6,0.2,1,0.3c0.4,0.1,0.8,0.3,1.3,0.4c0.3,0.1,0.7,0.2,1.1,0.3c0.8,0.2,1.7,0.4,2.6,0.6
	c0.3,0.1,0.6,0.1,0.9,0.2c0.2,0,0.4,0.1,0.5,0.1c0.3,0.1,0.7,0.1,1,0.2c0.4,0.1,0.9,0.1,1.3,0.2c2,0.3,4.1,0.5,6.3,0.5
	C25.4,20.3,26,20.3,26.6,20.3z"/>
<path style="&st4;" d="M51.2,8.9c0,1.5-1.7,2.9-4.5,4.1c-4.1-1.7-10.9-2.8-18.6-2.8c-7.5,0-14.1,1.1-18.3,2.7
	c-2.7-1.1-4.3-2.5-4.3-4c0-3.8,10.2-6.8,22.8-6.8S51.2,5.2,51.2,8.9z"/>
<path style="&st5;" d="M46.6,13c-4.2,1.7-10.8,2.7-18.3,2.7c-7.6,0-14.4-1.1-18.5-2.8c4.2-1.6,10.8-2.7,18.3-2.7
	C35.7,10.2,42.5,11.3,46.6,13z"/>
<g>
	<path style="&st0;" d="M6.4,49.4c1.1,0.6,2.8,1.1,4.5,1.1c1.9,0,2.9-0.8,2.9-2c0-1.1-0.9-1.8-3-2.5c-3-1.1-5-2.7-5-5.3
		c0-3.1,2.6-5.4,6.8-5.4c2.1,0,3.5,0.4,4.6,0.9l-0.9,3.3c-0.7-0.3-2-0.9-3.8-0.9c-1.8,0-2.6,0.8-2.6,1.7c0,1.1,1,1.6,3.3,2.5
		c3.2,1.2,4.7,2.8,4.7,5.4c0,3-2.3,5.6-7.3,5.6c-2,0-4.1-0.6-5.1-1.1L6.4,49.4z"/>
	<path style="&st0;" d="M36.1,56.7c-2.6-0.7-4.7-1.5-7.1-2.5c-0.4-0.2-0.8-0.2-1.2-0.3c-4.1-0.3-7.9-3.3-7.9-9.1
		c0-5.4,3.4-9.5,8.8-9.5c5.5,0,8.5,4.2,8.5,9.1c0,4.1-1.9,7-4.3,8v0.1c1.4,0.4,2.9,0.7,4.3,1L36.1,56.7z M32.9,44.6
		c0-3.3-1.5-6-4.3-6c-2.8,0-4.4,2.7-4.4,6.1c0,3.4,1.6,6,4.4,6C31.3,50.7,32.9,48.1,32.9,44.6z"/>
	<path style="&st0;" d="M39.9,35.6h4.1v14.6h7.2v3.4H39.9V35.6z"/>
</g>
<g>
</g>
<g>
</g>
<g>
</g>
<g>
</g>
<g>
</g>
<g>
</g>
<g>
</g>
<g>
</g>
<g>
</g>
<g>
</g>
<g>
</g>
<g>
</g>
<g>
</g>
<g>
</g>
<g>
</g>
</svg>
